<?xml version="1.0" encoding="UTF-8" standalone="no"?>
<svg
   width="512"
   height="512"
   viewBox="0 0 48 48"
   version="1.1"
   id="svg4"
   sodipodi:docname="shield-1-remix.svg"
   xmlns:inkscape="http://www.inkscape.org/namespaces/inkscape"
   xmlns:sodipodi="http://sodipodi.sourceforge.net/DTD/sodipodi-0.dtd"
   xmlns="http://www.w3.org/2000/svg"
   xmlns:svg="http://www.w3.org/2000/svg">
  <defs
     id="defs8" />
  <sodipodi:namedview
     id="namedview6"
     pagecolor="#ffffff"
     bordercolor="#000000"
     borderopacity="0.25"
     inkscape:showpageshadow="2"
     inkscape:pageopacity="0.0"
     inkscape:pagecheckerboard="0"
     inkscape:deskcolor="#d1d1d1"
     showgrid="false" />
  <path
     fill="#000000"
     fill-rule="evenodd"
     d="M 7.438,5.702 C 9.816,5.17 14.678,4.5 24,4.5 c 9.322,0 14.184,0.67 16.562,1.202 0.605,0.135 1.13,0.653 1.239,1.661 0.297,2.759 0.699,7.44 0.699,12.532 q 0,0.729 -0.01,1.434 C 42.377,29.035 38.473,36.16 31.961,40.152 30.364,41.132 28.79,41.988 27.365,42.594 25.902,43.217 24.768,43.5 24,43.5 c -0.768,0 -1.902,-0.283 -3.365,-0.906 -1.425,-0.606 -3,-1.463 -4.596,-2.442 C 9.527,36.16 5.623,29.035 5.51,21.33 Q 5.5,20.625 5.499,19.896 c 0,-5.091 0.402,-9.773 0.7,-12.532 C 6.307,6.356 6.832,5.838 7.437,5.703 M 24,0.5 C 14.52,0.5 9.336,1.179 6.565,1.798 3.921,2.39 2.47,4.63 2.222,6.935 1.916,9.776 1.5,14.611 1.5,19.895 q 0,0.76 0.011,1.493 c 0.132,9.013 4.704,17.434 12.437,22.174 1.691,1.037 3.45,2.002 5.121,2.713 1.634,0.695 3.359,1.225 4.931,1.225 1.572,0 3.297,-0.53 4.93,-1.225 1.672,-0.711 3.431,-1.676 5.122,-2.713 7.733,-4.74 12.305,-13.16 12.437,-22.174 q 0.01,-0.735 0.011,-1.492 C 46.5,14.611 46.084,9.776 45.778,6.935 45.53,4.63 44.079,2.389 41.435,1.798 38.663,1.178 33.48,0.5 24,0.5 m -8.693,10.804 c 1.7,-0.268 4.415,-0.51 8.693,-0.51 4.278,0 6.994,0.242 8.693,0.51 1.924,0.303 3.07,1.88 3.24,3.72 0.147,1.606 0.294,3.802 0.294,6.155 0,5.452 -2.766,10.596 -7.518,13.321 -0.84,0.482 -1.684,0.91 -2.477,1.218 -0.786,0.306 -1.555,0.509 -2.232,0.509 -0.677,0 -1.446,-0.203 -2.232,-0.509 -0.792,-0.308 -1.637,-0.736 -2.477,-1.218 -4.752,-2.725 -7.518,-7.87 -7.518,-13.321 0,-2.353 0.148,-4.55 0.295,-6.156 0.17,-1.838 1.316,-3.416 3.24,-3.719"
     clip-rule="evenodd"
     id="path2"
     style="fill:#48b9c7;fill-opacity:1" />
</svg>
